<svg width="22" height="22" viewBox="0 0 22 22" fill="none" xmlns="http://www.w3.org/2000/svg">
<path d="M20.5965 6.7506C21.1567 3.82956 18.5922 1.26507 15.6711 1.82528L7.2845 3.43371C5.4614 3.78335 4.0034 5.16334 3.54019 6.9565C2.61535 10.5366 5.93555 13.8086 9.50056 12.7602C9.599 12.7313 9.69047 12.8227 9.66152 12.9212C8.61315 16.4862 11.8851 19.8064 15.4653 18.8816C17.2584 18.4184 18.6384 16.9604 18.9881 15.1372L20.5965 6.7506Z" fill="#FFFAE6"/>
<path d="M4.5325 14.9725C4.80098 14.704 4.80098 14.2687 4.5325 14.0002C4.26401 13.7317 3.82871 13.7317 3.56023 14.0002L2.26386 15.2965C1.99538 15.565 1.99538 16.0003 2.26386 16.2688C2.53235 16.5373 2.96765 16.5373 3.23614 16.2688L4.5325 14.9725Z" fill="#FFFAE6"/>
<path d="M7.7734 14.6484C8.04189 14.9169 8.04189 15.3522 7.7734 15.6206L6.47704 16.917C6.20856 17.1855 5.77326 17.1855 5.50477 16.917C5.23628 16.6485 5.23628 16.2132 5.50477 15.9447L6.80113 14.6484C7.06962 14.3799 7.50492 14.3799 7.7734 14.6484Z" fill="#FFFAE6"/>
<path d="M8.42159 18.8615C8.69007 18.5931 8.69007 18.1578 8.42159 17.8893C8.1531 17.6208 7.7178 17.6208 7.44931 17.8893L6.15295 19.1856C5.88447 19.4541 5.88447 19.8894 6.15295 20.1579C6.42144 20.4264 6.85674 20.4264 7.12522 20.1579L8.42159 18.8615Z" fill="#FFFAE6"/>
</svg>
