<svg width="22" height="22" viewBox="0 0 22 22" fill="none" xmlns="http://www.w3.org/2000/svg">
<path d="M17.9029 5.06948C18.1714 4.80099 18.1714 4.36569 17.9029 4.09721C17.6344 3.82872 17.1991 3.82872 16.9306 4.09721L11.0001 10.0278L5.06951 4.09721C4.80102 3.82872 4.36572 3.82872 4.09724 4.09721C3.82875 4.3657 3.82875 4.801 4.09724 5.06948L10.0278 11L4.09726 16.9305C3.82878 17.199 3.82878 17.6343 4.09726 17.9028C4.36575 18.1713 4.80105 18.1713 5.06953 17.9028L11.0001 11.9723L16.9306 17.9028C17.1991 18.1713 17.6344 18.1713 17.9028 17.9028C18.1713 17.6343 18.1713 17.199 17.9028 16.9305L11.9723 11L17.9029 5.06948Z" fill="#FFFAE6"/>
</svg>
