<svg width="22" height="22" viewBox="0 0 22 22" fill="none" xmlns="http://www.w3.org/2000/svg">
<path fill-rule="evenodd" clip-rule="evenodd" d="M4.63932 2.70868C4.7357 2.63866 4.83537 2.57424 4.93894 2.51497C4.97221 2.58907 5.01927 2.65848 5.08012 2.71933C6.26313 3.90229 7.1917 4.82939 8.01025 5.48453C8.83894 6.14778 9.615 6.58313 10.5091 6.72475C11.0554 6.81127 11.6119 6.81127 12.1582 6.72475C13.0274 6.58709 13.7848 6.17194 14.5876 5.53973C15.3801 4.91559 16.2698 4.03589 17.3898 2.91673C17.4257 2.88082 17.4568 2.84192 17.4832 2.80084C17.8219 3.06466 18.122 3.37492 18.3747 3.72266C19.25 4.92746 19.25 6.64609 19.25 10.0833V11.9167C19.25 15.3539 19.25 17.0726 18.3747 18.2774C18.092 18.6665 17.7498 19.0086 17.3607 19.2913C16.1559 20.1667 14.4373 20.1667 11 20.1667C7.56275 20.1667 5.84412 20.1667 4.63932 19.2913C4.25022 19.0086 3.90804 18.6665 3.62534 18.2774C2.75 17.0726 2.75 15.3539 2.75 11.9167V10.0833C2.75 6.64609 2.75 4.92746 3.62534 3.72266C3.90804 3.33356 4.25022 2.99138 4.63932 2.70868ZM7.33333 10.3125C6.95364 10.3125 6.64583 10.6203 6.64583 11C6.64583 11.3797 6.95364 11.6875 7.33333 11.6875H10.0833C10.463 11.6875 10.7708 11.3797 10.7708 11C10.7708 10.6203 10.463 10.3125 10.0833 10.3125H7.33333ZM7.33333 13.9792C6.95364 13.9792 6.64583 14.287 6.64583 14.6667C6.64583 15.0464 6.95364 15.3542 7.33333 15.3542H14.6667C15.0464 15.3542 15.3542 15.0464 15.3542 14.6667C15.3542 14.287 15.0464 13.9792 14.6667 13.9792H7.33333Z" fill="#FFFAE6"/>
<path d="M11 1.83334C13.4749 1.83334 15.0589 1.83334 16.2015 2.16011C15.1745 3.18441 14.4063 3.93228 13.7369 4.4595C13.0314 5.01504 12.4907 5.27994 11.9431 5.36668C11.5393 5.43063 11.128 5.43063 10.7242 5.36668C10.1609 5.27745 9.605 4.99974 8.86945 4.41103C8.18458 3.86288 7.3966 3.08957 6.34022 2.03471C7.43301 1.83334 8.89388 1.83334 11 1.83334Z" fill="#FFFAE6"/>
</svg>
